# xmcd
#
# Track frame offsets:
#	150
#	15476
#	29387
#	43836
#	58327
#	71618
#	85489
#	103625
#	115242
#	128444
#	142952
#	158749
#	171111
#	186755
#	198739
#	213451
#	226746
#	243526
#	258908
#	277267
#
# Disc length: 3915 seconds
#
# Revision: 1
# Processed by: cddbd v1.4b41PL3 Copyright (c) Steve Scherf et al.
# Submitted via: audiograbber 1.80
#
DISCID=220f4914
DTITLE=Tanya Tucker - Country Greatest
DYEAR=1900
DGENRE=
TTITLE0=Delta Dawn
TTITLE1=The Jamestown Ferry
TTITLE2=What´s Your Mama´s Name, Child
TTITLE3=Blood Red And Going Down
TTITLE4=San Antonio Stroll
TTITLE5=Don´t Believe My Heart Can Stand Another You
TTITLE6=Texas (When I Die)
TTITLE7=Pecos Promenade
TTITLE8=One Love At A Time
TTITLE9=Just Another Love
TTITLE10=If It Don´t Come Easy
TTITLE11=Strong Enough To Bend
TTITLE12=Highway Robbery
TTITLE13=Walking Shoes
TTITLE14=Don´t Go Out With Him
TTITLE15=It Won´t Be Me
TTITLE16=Tell Me About It
TTITLE17=Hangin´ In
TTITLE18=Little Things
TTITLE19=I Don´t Believe That´s How You Feel
EXTD=
EXTT0=
EXTT1=
EXTT2=
EXTT3=
EXTT4=
EXTT5=
EXTT6=
EXTT7=
EXTT8=
EXTT9=
EXTT10=
EXTT11=
EXTT12=
EXTT13=
EXTT14=
EXTT15=
EXTT16=
EXTT17=
EXTT18=
EXTT19=
PLAYORDER=
